HIERARCHY
ROOT SpineBase
{
  OFFSET 0.000000 0.000000 0.000000
  CHANNELS 6 Xposition Yposition Zposition Zrotation Xrotation Yrotation
  JOINT SpineMid
  {
    OFFSET 0.000000 27.964677 0.000000
    CHANNELS 3 Zrotation Xrotation Yrotation
    JOINT SpineShoulder
    {
      OFFSET 0.054116 20.734275 -0.622295
      CHANNELS 3 Zrotation Xrotation Yrotation
      JOINT Neck
      {
        OFFSET 0.040459 6.852535 -0.481772
        CHANNELS 3 Zrotation Xrotation Yrotation
        JOINT Head
        {
          OFFSET 4.804070 12.056325 -0.046333
          CHANNELS 3 Zrotation Xrotation Yrotation
          End Site
          {
            OFFSET 0 0 0
          }
        }
      }
      JOINT ShoulderLeft
      {
        OFFSET -11.440584 -2.742277 -10.875048
        CHANNELS 3 Zrotation Xrotation Yrotation
        JOINT ElbowLeft
        {
          OFFSET -4.962017 -20.923680 -3.776611
          CHANNELS 3 Zrotation Xrotation Yrotation
          JOINT WristLeft
          {
            OFFSET 2.942596 -18.533709 -3.938590
            CHANNELS 3 Zrotation Xrotation Yrotation
            JOINT HandLeft
            {
              OFFSET 1.426383 -6.590657 -0.387259
              CHANNELS 3 Zrotation Xrotation Yrotation
              JOINT HandTipLeft
              {
                OFFSET 1.616812 -5.504106 -3.032741
                CHANNELS 3 Zrotation Xrotation Yrotation
                End Site
                {
                  OFFSET 0 0 0
                }
              }
              JOINT ThumbLeft
              {
                OFFSET -1.748124 0.876073 -1.529441
                CHANNELS 3 Zrotation Xrotation Yrotation
                End Site
                {
                  OFFSET 0 0 0
                }
              }
            }
          }
        }
      }
      JOINT ShoulderRight
      {
        OFFSET 12.939302 -6.172429 9.005301
        CHANNELS 3 Zrotation Xrotation Yrotation
        JOINT ElbowRight
        {
          OFFSET 1.209115 -25.200816 3.929229
          CHANNELS 3 Zrotation Xrotation Yrotation
          JOINT WristRight
          {
            OFFSET -0.024919 -18.571197 -3.707192
            CHANNELS 3 Zrotation Xrotation Yrotation
            JOINT HandRight
            {
              OFFSET -1.300963 -5.204557 -1.794961
              CHANNELS 3 Zrotation Xrotation Yrotation
              JOINT HandTipRight
              {
                OFFSET -0.200721 -5.712994 -1.801737
                CHANNELS 3 Zrotation Xrotation Yrotation
                End Site
                {
                  OFFSET 0 0 0
                }
              }
              JOINT ThumbRight
              {
                OFFSET 1.819777 -2.102494 -1.463171
                CHANNELS 3 Zrotation Xrotation Yrotation
                End Site
                {
                  OFFSET 0 0 0
                }
              }
            }
          }
        }
      }
    }
  }
  JOINT HipLeft
  {
    OFFSET -4.064605 1.444667 -7.024983
    CHANNELS 3 Zrotation Xrotation Yrotation
    JOINT KneeLeft
    {
      OFFSET -11.115017 -34.895392 -4.229031
      CHANNELS 3 Zrotation Xrotation Yrotation
      JOINT AnkleLeft
      {
        OFFSET -6.609221 -29.788648 -0.189041
        CHANNELS 3 Zrotation Xrotation Yrotation
        JOINT FootLeft
        {
          OFFSET 1.474543 -6.633350 -5.282492
          CHANNELS 3 Zrotation Xrotation Yrotation
          End Site
          {
            OFFSET 0 0 0
          }
        }
      }
    }
  }
  JOINT HipRight
  {
    OFFSET 4.432983 -0.423967 0.702340
    CHANNELS 3 Zrotation Xrotation Yrotation
    JOINT KneeRight
    {
      OFFSET -4.858265 -37.057978 6.834007
      CHANNELS 3 Zrotation Xrotation Yrotation
      JOINT AnkleRight
      {
        OFFSET -5.588722 -28.724017 6.349057
        CHANNELS 3 Zrotation Xrotation Yrotation
        JOINT FootRight
        {
          OFFSET 3.127825 -4.081904 -6.389274
          CHANNELS 3 Zrotation Xrotation Yrotation
          End Site
          {
            OFFSET 0 0 0
          }
        }
      }
    }
  }
}
MOTION
Frames: 13
Frame Time: 0.033333
-20.673211 72.262085 356.536144 -0.162413 0.451839 -34.771762 0.391102 -0.278524 34.773353 -0.085563 0.877891 -0.010549 6.060628 -1.650096 0.484782 0.000000 0.000000 0.000000 1.048342 -0.155373 -0.324813 -1.311653 0.855473 0.663675 -0.333960 4.319712 1.014296 -1.811110 -11.738696 -2.186596 0.000000 0.000000 0.000000 0.000000 0.000000 0.000000 -1.009378 -1.560734 -0.214827 -1.379275 2.683656 0.756861 5.292032 4.711235 -3.128675 -3.355413 -5.316249 2.569491 0.000000 0.000000 0.000000 0.000000 0.000000 0.000000 0.690853 0.750941 34.455709 -0.829649 -0.679235 0.311490 1.352971 5.382560 0.054120 0.000000 0.000000 0.000000 0.763672 -1.511940 34.866333 0.399438 1.224972 -0.091429 -18.036124 -40.248330 -33.075797 0.000000 0.000000 0.000000
-20.749228 72.306384 356.556197 -0.182943 0.653884 -33.881169 -0.029280 0.331155 33.880531 -0.078740 0.210767 -0.011277 7.410769 -1.686445 0.447812 0.000000 0.000000 0.000000 1.120256 -0.359098 -0.344631 -1.870655 1.209574 0.867559 0.461014 3.723978 0.787658 -2.204620 -12.872802 -2.545367 0.000000 0.000000 0.000000 0.000000 0.000000 0.000000 -1.196295 -1.207739 -0.216705 -1.819387 1.934249 0.874665 5.379354 3.795445 -2.781269 -0.994258 -4.285598 1.776292 0.000000 0.000000 0.000000 0.000000 0.000000 0.000000 0.941908 0.753600 33.518482 -1.014394 -0.760809 0.357821 2.942797 10.601741 -0.234985 0.000000 0.000000 0.000000 0.830108 -1.645042 33.967907 0.412686 1.173945 -0.082225 -18.737416 -41.223914 -35.800235 0.000000 0.000000 0.000000
-20.822953 72.431632 356.661486 -0.114238 0.907326 -33.179010 -0.054933 0.365590 33.179596 -0.062935 0.244808 -0.009002 8.649864 -1.755635 0.407687 0.000000 0.000000 0.000000 1.171922 -0.518533 -0.406754 -2.603643 1.630210 1.156631 1.737950 3.128772 0.540697 -4.655330 -12.899295 -1.855033 0.000000 0.000000 0.000000 0.000000 0.000000 0.000000 -1.099831 -0.448216 -0.133700 -1.836280 -0.508405 0.685454 5.353922 5.231894 -2.907751 0.577322 -3.682025 1.408163 0.000000 0.000000 0.000000 0.000000 0.000000 0.000000 1.081771 0.714697 32.748180 -1.175459 -0.922285 0.425798 7.503941 20.047155 -2.432024 0.000000 0.000000 0.000000 0.759229 -1.741809 33.233908 0.433008 0.965566 -0.050487 -18.025269 -41.019346 -36.892253 0.000000 0.000000 0.000000
-20.906069 72.553525 356.759042 -0.189106 1.218377 -32.193232 -0.087948 0.281738 32.189404 -0.153984 0.203549 -0.023123 11.159290 -1.332690 0.225241 0.000000 0.000000 0.000000 1.717456 -0.525050 -0.481243 -3.715636 2.330191 1.586521 2.877133 1.870251 0.185894 -5.495906 -10.099544 -0.640419 0.000000 0.000000 0.000000 0.000000 0.000000 0.000000 -0.562093 0.786233 0.016562 -1.881119 -4.304812 0.411161 6.562815 6.452121 -3.328627 -1.253613 0.754765 1.412610 0.000000 0.000000 0.000000 0.000000 0.000000 0.000000 1.544779 0.589140 31.744364 -1.004157 -0.006262 0.250184 11.810630 20.690528 -5.896262 0.000000 0.000000 0.000000 0.889860 -1.891608 32.234115 1.103922 0.325531 0.208552 -19.602847 -41.557836 -40.400764 0.000000 0.000000 0.000000
-20.865503 72.788856 357.074709 -0.108127 1.290575 -31.905750 0.008737 0.343727 31.907655 0.010680 0.101083 -0.001716 12.727696 -0.675503 -0.087568 0.000000 0.000000 0.000000 1.535466 -0.232498 -0.608082 -4.279572 2.733082 1.869973 3.737613 1.322714 0.050268 -6.842514 -9.378076 -0.010541 0.000000 0.000000 0.000000 0.000000 0.000000 0.000000 -0.335626 1.883287 0.136146 -2.345641 -6.069889 0.174208 6.966507 5.387850 -3.108756 -6.495288 2.897476 2.541808 0.000000 0.000000 0.000000 0.000000 0.000000 0.000000 1.392200 0.752738 31.355368 -1.003021 -0.045082 0.289586 14.763805 24.274459 -7.798015 0.000000 0.000000 0.000000 0.773982 -1.038408 31.913982 0.809638 -0.595452 0.299093 -20.512536 -42.025265 -41.308401 0.000000 0.000000 0.000000
-20.855101 73.139212 357.599123 0.289192 1.161018 -31.987222 0.063765 0.306929 31.997310 0.112397 -0.025268 0.025388 12.905007 0.752965 -0.801107 0.000000 0.000000 0.000000 1.159709 0.288813 -0.739611 -4.419062 3.049350 2.022055 4.141911 1.115295 0.049945 -6.618551 -7.497711 0.380222 0.000000 0.000000 0.000000 0.000000 0.000000 0.000000 -0.901512 2.765684 0.115143 -2.404718 -5.175584 0.172726 6.115508 2.019778 -2.094867 -8.199462 2.670716 2.808019 0.000000 0.000000 0.000000 0.000000 0.000000 0.000000 0.840009 1.224872 31.226420 -1.084768 -0.403484 0.439365 18.460985 28.482112 -10.387111 0.000000 0.000000 0.000000 -0.409335 -0.788710 31.794087 1.333829 -1.347435 0.512905 -20.596368 -42.101397 -41.961050 0.000000 0.000000 0.000000
-20.772126 73.635084 358.271944 0.598979 0.962490 -32.984697 0.160936 0.293857 33.004810 0.187524 -0.131487 0.049406 10.888985 2.750153 -1.786572 0.000000 0.000000 0.000000 0.341558 0.718385 -0.738388 -3.372371 2.941326 1.807439 2.480324 3.657726 0.716908 -4.786261 -9.615600 -0.681879 0.000000 0.000000 0.000000 0.000000 0.000000 0.000000 -5.856496 3.712925 -0.490166 5.339246 -6.220435 0.673149 2.947190 -1.851171 -0.220542 -10.631429 3.950971 3.123857 0.000000 0.000000 0.000000 0.000000 0.000000 0.000000 0.445227 1.875913 32.001661 -0.464108 -0.480960 0.557424 17.368784 29.414160 -9.977131 0.000000 0.000000 0.000000 -1.322953 0.301210 32.651501 1.065046 -2.584954 0.635428 -19.983055 -41.817393 -41.573626 0.000000 0.000000 0.000000
-21.104781 74.221959 359.081394 1.226562 0.429557 -34.387016 0.044092 0.244130 34.421557 0.200171 -0.200846 0.073611 9.412533 4.838428 -2.699313 0.000000 0.000000 0.000000 -0.490817 1.592337 -0.800238 -1.921269 2.531975 1.541137 1.374688 4.487946 1.068360 -2.774726 -9.579096 -1.432934 0.000000 0.000000 0.000000 0.000000 0.000000 0.000000 -6.646086 4.765002 -0.467983 7.984846 -6.932200 0.509292 3.559108 -3.724037 -0.091038 -17.021917 1.432516 5.295038 0.000000 0.000000 0.000000 0.000000 0.000000 0.000000 -1.006090 3.233908 32.938726 0.428951 -2.548450 1.248552 18.189966 32.664237 -11.561588 0.000000 0.000000 0.000000 -2.909222 1.994012 33.893582 1.267341 -4.728515 1.047807 -20.300870 -41.257315 -41.296489 0.000000 0.000000 0.000000
-22.010289 74.756997 359.735107 1.843805 -0.143827 -36.087388 0.048041 0.161268 36.147296 0.185110 -0.251195 0.099006 7.810318 6.948206 -3.522548 0.000000 0.000000 0.000000 -1.448670 2.461499 -0.805263 -0.214770 2.000624 1.175628 0.420964 2.787189 0.890340 -0.597529 -6.009595 -1.438458 0.000000 0.000000 0.000000 0.000000 0.000000 0.000000 -4.511379 5.404483 -0.154674 6.490863 -7.659208 -0.126892 7.028543 -7.563366 0.118418 -19.501880 -1.702252 6.120635 0.000000 0.000000 0.000000 0.000000 0.000000 0.000000 -3.149826 4.851196 34.073062 1.292114 -6.424354 2.469991 10.889576 30.307913 -6.929687 0.000000 0.000000 0.000000 -4.120758 3.812224 35.570970 1.448919 -6.848990 1.528863 -20.923129 -40.199537 -39.959759 0.000000 0.000000 0.000000
-23.460516 75.333913 359.775934 2.150129 -0.072546 -38.153180 0.152850 0.064240 38.224823 0.247385 -0.267568 0.118168 6.102364 7.828311 -3.851339 0.000000 0.000000 0.000000 -1.734398 2.853261 -0.926392 0.999371 1.055520 0.901982 -1.649759 2.959678 1.162648 2.449213 -6.638311 -2.632448 0.000000 0.000000 0.000000 0.000000 0.000000 0.000000 2.639757 5.887526 0.618222 -2.542487 -9.419360 -1.529536 4.902041 -4.354227 0.106887 -12.677744 -8.289079 3.485031 0.000000 0.000000 0.000000 0.000000 0.000000 0.000000 -4.372277 6.213030 35.545667 0.763554 -11.449142 3.917236 5.469908 26.386453 -3.566430 0.000000 0.000000 0.000000 -3.898344 4.913406 37.777036 1.261764 -7.977439 1.809414 -22.229164 -39.404846 -38.067918 0.000000 0.000000 0.000000
-25.826433 75.560106 358.916761 2.758275 0.528015 -39.944935 0.088988 -0.030293 40.017515 0.194054 -0.208966 0.132829 5.422867 7.661419 -4.003549 0.000000 0.000000 0.000000 -1.691365 2.958470 -1.236001 2.925038 -0.224113 0.649668 -3.888203 2.595416 1.497266 3.694114 -6.195694 -3.212131 0.000000 0.000000 0.000000 0.000000 0.000000 0.000000 17.470636 2.962502 2.659387 -19.406916 -6.696486 -3.948653 -3.193993 0.416306 2.053379 0.248121 -17.271752 -0.760229 0.000000 0.000000 0.000000 0.000000 0.000000 0.000000 -6.795560 6.301738 36.803106 0.815161 -16.980446 5.233755 11.415330 25.351820 -9.245027 0.000000 0.000000 0.000000 -2.267554 5.060802 39.928750 0.768921 -8.102099 1.929830 -23.863721 -38.526860 -37.823766 0.000000 0.000000 0.000000
-28.101894 75.650038 357.809833 4.042608 1.532074 -42.239944 0.258725 -0.052014 42.318253 0.236438 -0.189343 0.192963 4.774573 7.484496 -4.410020 0.000000 0.000000 0.000000 -1.920028 3.243595 -1.879434 3.045301 -1.805529 0.921740 -1.168842 2.155447 1.401946 2.217580 -6.639147 -4.473863 0.000000 0.000000 0.000000 0.000000 0.000000 0.000000 40.127151 -0.550429 7.533185 -42.801256 2.058726 -5.789332 -6.903498 2.437512 2.303719 11.382547 -26.191712 -1.498566 0.000000 0.000000 0.000000 0.000000 0.000000 0.000000 -8.935605 4.088703 38.781254 -0.220811 -20.689635 5.455679 8.123485 25.819444 -4.914813 0.000000 0.000000 0.000000 -0.451600 4.129673 42.677474 0.103681 -7.259266 1.804977 -23.951218 -36.975534 -37.169891 0.000000 0.000000 0.000000
-31.284164 75.326024 356.015273 5.729550 2.694421 -43.161113 0.377986 -0.040672 43.219963 0.212769 -0.117616 0.260151 6.297318 6.640504 -4.756301 0.000000 0.000000 0.000000 0.040391 3.641330 -3.160145 2.599669 -3.761451 1.475513 -0.852540 1.565172 1.687141 1.192782 -8.280918 -5.963468 0.000000 0.000000 0.000000 0.000000 0.000000 0.000000 69.590341 -1.951496 15.963038 -71.668852 8.925856 -4.130522 -6.670979 2.962197 2.441533 12.655005 -14.181984 -3.040591 0.000000 0.000000 0.000000 0.000000 0.000000 0.000000 -5.822195 2.061237 39.835733 -10.386186 -18.074825 3.086561 11.334706 24.505408 -1.885730 0.000000 0.000000 0.000000 2.013511 2.705267 44.284380 -0.089515 -6.294228 1.858733 -27.399739 -37.349005 -41.711326 0.000000 0.000000 0.000000
